#!OML:ASF E:\Style4\Style4.ASF
:FULLY-SPECIFIED
:DEGREES
4156
root -0.0942512 17.5527 -1.25394 4.39028 -1.47472 4.34369
lowerback 12.7383 3.01143 -3.08508
upperback 4.33258 3.51321 -2.24116
thorax -2.62205 1.74296 -1.11892
lowerneck 3.07637 -11.5818 -7.50769
upperneck 3.15832 -15.9609 11.0738
head 1.94148 -7.99481 4.16854
rclavicle 3.05694e-014 -2.17972e-014
rhumerus 55.4322 -23.1982 -36.1509
rradius 59.7819
rwrist -3.1933
rhand 13.966 7.68288
rfingers 7.12502
rthumb 38.8775 -17.8721
lclavicle 3.05694e-014 -2.17972e-014
lhumerus 58.403 10.6234 22.607
lradius 92.2765
lwrist 20.5455
lhand 11.708 26.5141
lfingers 7.12502
lthumb 36.7445 52.6442
rfemur -25.5245 1.21194 14.5596
rtibia 42.2345
rfoot -18.3311 -18.1668
rtoes -15.3163
lfemur -22.0872 1.34456 -22.0427
ltibia 36.19
lfoot -18.3559 8.88208
ltoes -16.9745
4157
root -0.117951 17.5311 -1.26343 4.37188 -1.28618 4.41164
lowerback 12.8625 3.11947 -2.91362
upperback 4.37857 3.67136 -2.27488
thorax -2.62921 1.82227 -1.27889
lowerneck 3.00674 -11.7549 -7.4773
upperneck 3.10897 -16.1812 10.9925
head 1.94992 -8.10327 4.126
rclavicle 4.06825e-014 -1.98785e-014
rhumerus 55.2043 -23.4571 -36.103
rradius 59.6792
rwrist -3.05547
rhand 14.0379 7.599
rfingers 7.12502
rthumb 38.9453 -17.9367
lclavicle 4.06825e-014 -1.98785e-014
lhumerus 58.3206 11.0943 22.2919
lradius 92.4192
lwrist 20.7434
lhand 11.6915 26.3013
lfingers 7.12502
lthumb 36.7289 52.4354
rfemur -25.7477 1.11432 14.5669
rtibia 42.6725
rfoot -18.563 -18.226
rtoes -14.9988
lfemur -22.3705 1.33271 -22.0354
ltibia 36.6462
lfoot -18.5293 8.82001
ltoes -17.425
4158
root -0.138604 17.5055 -1.27099 4.28546 -1.15195 4.46898
lowerback 13.0714 3.18284 -2.74504
upperback 4.51452 3.7706 -2.26663
thorax -2.58986 1.87158 -1.3866
lowerneck 2.53397 -11.906 -7.5683
upperneck 3.24575 -16.3696 10.8763
head 2.08183 -8.18208 4.05794
rclavicle -1.2101e-014 -3.47873e-015
rhumerus 55.212 -23.7336 -36.1536
rradius 59.6304
rwrist -2.93869
rhand 14.3299 7.59633
rfingers 7.12502
rthumb 39.2205 -17.8602
lclavicle -1.2101e-014 -3.47873e-015
lhumerus 58.0978 11.778 21.9934
lradius 92.6747
lwrist 21.0688
lhand 11.7871 26.4325
lfingers 7.12502
lthumb 36.8193 52.5435
rfemur -25.962 1.01551 14.574
rtibia 43.2135
rfoot -18.8855 -18.0903
rtoes -13.8892
lfemur -22.5973 1.38484 -22.0246
ltibia 37.1767
lfoot -18.6842 8.63203
ltoes -17.5791
4159
root -0.160245 17.4775 -1.27709 4.15005 -1.09868 4.62856
lowerback 13.2888 3.28666 -2.73701
upperback 4.52363 3.8972 -2.29722
thorax -2.69449 1.93476 -1.45544
lowerneck 2.78206 -12.0067 -7.72657
upperneck 3.13652 -16.5116 10.8929
head 2.03719 -8.26345 4.09687
rclavicle -1.49089e-015 -1.15295e-014
rhumerus 54.9917 -23.7895 -36.1177
rradius 59.5952
rwrist -2.83325
rhand 14.5066 7.54066
rfingers 7.12502
rthumb 39.387 -17.8674
lclavicle -1.49089e-015 -1.15295e-014
lhumerus 57.8179 12.2598 21.6643
lradius 93.0094
lwrist 21.809
lhand 11.9254 26.6606
lfingers 7.12502
lthumb 36.9501 52.7379
rfemur -26.1826 1.00438 14.4693
rtibia 43.8142
rfoot -19.2843 -18.073
rtoes -13.1322
lfemur -22.8033 1.46394 -22.1372
ltibia 37.7622
lfoot -18.788 8.59486
ltoes -18.0564
4160
root -0.183071 17.4507 -1.28363 4.00092 -1.07026 4.70522
lowerback 13.4947 3.41887 -2.66385
upperback 4.44684 4.06792 -2.31594
thorax -2.87909 2.02024 -1.55883
lowerneck 3.47898 -12.0775 -7.77239
upperneck 2.86405 -16.6196 10.9056
head 1.85979 -8.34248 4.15849
rclavicle 4.11484e-014 -4.3832e-014
rhumerus 54.6086 -23.7719 -36.0525
rradius 59.4913
rwrist -2.76098
rhand 14.6053 7.48998
rfingers 7.12502
rthumb 39.48 -17.8908
lclavicle 4.11484e-014 -4.3832e-014
lhumerus 57.492 12.5608 21.2019
lradius 93.2311
lwrist 22.653
lhand 11.9355 26.8125
lfingers 7.12502
lthumb 36.9597 52.8873
rfemur -26.3925 1.05345 14.4833
rtibia 44.4252
rfoot -19.691 -18.2313
rtoes -12.9242
lfemur -23.008 1.60637 -22.1548
ltibia 38.3483
lfoot -18.8886 8.6541
ltoes -19.1523
4161
root -0.203732 17.4229 -1.29029 3.88048 -1.05446 4.68013
lowerback 13.6169 3.4559 -2.48656
upperback 4.59586 4.14085 -2.26193
thorax -2.78005 2.05622 -1.61456
lowerneck 3.23169 -12.1264 -7.89973
upperneck 2.93359 -16.6784 10.8289
head 1.92952 -8.36484 4.13097
rclavicle 2.78299e-014 -2.48481e-014
rhumerus 54.8202 -23.9382 -36.3055
rradius 59.4074
rwrist -2.67345
rhand 14.749 7.43068
rfingers 7.12502
rthumb 39.6154 -17.9103
lclavicle 2.78299e-014 -2.48481e-014
lhumerus 57.051 13.2985 20.6844
lradius 93.2615
lwrist 23.4259
lhand 11.7716 26.7718
lfingers 7.12502
lthumb 36.8047 52.8865
rfemur -26.6076 0.990461 14.6234
rtibia 45.0155
rfoot -19.9788 -18.3666
rtoes -13.1962
lfemur -23.2302 1.7562 -22.0538
ltibia 38.9111
lfoot -19.0216 8.57786
ltoes -19.6617
4162
root -0.217654 17.3944 -1.29054 3.73727 -1.12408 4.85671
lowerback 13.6568 3.51321 -2.49802
upperback 4.77266 4.21823 -2.26415
thorax -2.61594 2.09412 -1.61796
lowerneck 3.0812 -12.1846 -8.06169
upperneck 2.89884 -16.7494 10.8051
head 1.96139 -8.39803 4.13273
rclavicle 7.90169e-015 5.96354e-016
rhumerus 55.0585 -24.0737 -36.5876
rradius 59.3553
rwrist -2.59152
rhand 14.8493 7.46611
rfingers 7.12502
rthumb 39.7098 -17.8468
lclavicle 7.90169e-015 5.96354e-016
lhumerus 56.7395 13.9966 20.3823
lradius 93.2245
lwrist 24.0263
lhand 11.8267 26.7465
lfingers 7.12502
lthumb 36.8567 52.8478
rfemur -26.7895 0.851646 14.485
rtibia 45.5816
rfoot -20.4069 -18.2616
rtoes -12.9011
lfemur -23.356 1.87388 -22.201
ltibia 39.4352
lfoot -19.2705 8.48156
ltoes -19.7127
4163
root -0.230727 17.3658 -1.2885 3.58658 -1.19925 5.03755
lowerback 13.6497 3.65141 -2.4613
upperback 4.81226 4.40397 -2.348
thorax -2.55942 2.18723 -1.75278
lowerneck 3.63116 -12.2852 -8.0047
upperneck 2.62503 -16.8903 10.8258
head 1.80286 -8.48766 4.1715
rclavicle 3.63776e-014 4.57205e-015
rhumerus 54.7632 -24.1613 -36.606
rradius 59.3289
rwrist -2.56382
rhand 14.7768 7.41453
rfingers 7.12502
rthumb 39.6415 -17.9187
lclavicle 3.63776e-014 4.57205e-015
lhumerus 56.7923 14.3248 20.3054
lradius 93.1843
lwrist 24.5665
lhand 12.1386 26.8456
lfingers 7.12502
lthumb 37.1518 52.8707
rfemur -26.9431 0.700998 14.3298
rtibia 46.1389
rfoot -20.8678 -18.0771
rtoes -12.5348
lfemur -23.4518 1.99852 -22.3589
ltibia 39.9438
lfoot -19.4744 8.42578
ltoes -19.8798
4164
root -0.246278 17.337 -1.29159 3.48576 -1.1896 5.20304
lowerback 13.7023 3.67689 -2.45236
upperback 4.93472 4.43964 -2.36451
thorax -2.45666 2.20503 -1.7788
lowerneck 3.55417 -12.3271 -8.13134
upperneck 2.61581 -16.9468 10.8527
head 1.83073 -8.51469 4.18785
rclavicle 2.98177e-015 -1.2921e-014
rhumerus 54.9255 -24.2423 -36.8284
rradius 59.2217
rwrist -2.55965
rhand 14.7359 7.39672
rfingers 7.12502
rthumb 39.603 -17.9479
lclavicle 2.98177e-015 -1.2921e-014
lhumerus 56.677 14.9539 20.2442
lradius 93.1155
lwrist 25.0183
lhand 12.5707 26.9334
lfingers 7.12502
lthumb 37.5603 52.851
rfemur -27.1511 0.515916 14.2131
rtibia 46.696
rfoot -21.1395 -17.9534
rtoes -12.4849
lfemur -23.6333 2.08864 -22.4875
ltibia 40.4601
lfoot -19.6408 8.37262
ltoes -20.1917
4165
root -0.258065 17.3082 -1.29422 3.34695 -1.17986 5.33636
lowerback 13.8262 3.69893 -2.34098
upperback 5.03887 4.47913 -2.42073
thorax -2.40038 2.22593 -1.90953
lowerneck 3.53218 -12.3937 -8.10179
upperneck 2.5818 -17.0289 10.8003
head 1.82505 -8.55529 4.16403
rclavicle -2.23136e-014 1.13307e-014
rhumerus 55.0466 -24.3344 -37.1472
rradius 59.0698
rwrist -2.51995
rhand 14.7687 7.45082
rfingers 7.12502
rthumb 39.6338 -17.8846
lclavicle -2.23136e-014 1.13307e-014
lhumerus 56.5533 15.5257 20.0151
lradius 93.0938
lwrist 25.5083
lhand 12.7299 27.1112
lfingers 7.12502
lthumb 37.7107 52.9886
rfemur -27.3211 0.309687 14.1214
rtibia 47.2685
rfoot -21.3782 -17.8
rtoes -12.3614
lfemur -23.7881 2.12292 -22.5884
ltibia 41.0067
lfoot -19.9084 8.35413
ltoes -20.4879
4166
root -0.268847 17.2787 -1.29367 3.12882 -1.22484 5.31154
lowerback 13.9765 3.73064 -2.13363
upperback 5.12469 4.5449 -2.40034
thorax -2.37589 2.26002 -2.02074
lowerneck 3.66368 -12.4568 -8.11087
upperneck 2.58152 -17.1162 10.7178
head 1.80591 -8.60255 4.14647
rclavicle -5.64548e-014 2.72335e-014
rhumerus 55.1199 -24.3458 -37.3509
rradius 58.9431
rwrist -2.53263
rhand 14.7273 7.44733
rfingers 7.12502
rthumb 39.5949 -17.8996
lclavicle -5.64548e-014 2.72335e-014
lhumerus 56.3076 16.0218 19.7103
lradius 93.0929
lwrist 25.7999
lhand 12.7585 27.2142
lfingers 7.12502
lthumb 37.7378 53.0843
rfemur -27.4144 0.167795 14.2107
rtibia 47.8609
rfoot -21.6036 -17.7344
rtoes -12.7403
lfemur -23.8707 2.24185 -22.5118
ltibia 41.5841
lfoot -20.187 8.21973
ltoes -20.1434
